<svg id="Layer_1" data-name="Layer 1" xmlns="http://www.w3.org/2000/svg" xmlns:xlink="http://www.w3.org/1999/xlink" width="1920" height="1080" viewBox="0 0 1920 1080"><defs><linearGradient id="linear-gradient" x1="782.4" y1="1044.57" x2="615.02" y2="570.69" gradientUnits="userSpaceOnUse"><stop offset="0" stop-color="#002e46"/><stop offset="0.3" stop-color="#003a50"/><stop offset="1" stop-color="#005264"/></linearGradient></defs><path d="M942.87,966.59l-7.77-37.07-8.43,27.78L915,916.55,896.7,960.44q-49-6.39-98.7-12.33l-11.45-76.78-15.88,73.56-7.8-.91-6.61-44.3-9.17,42.49q-11.87-1.35-23.77-2.67l-19.84-68-20.7,57.27-11.61-44.29-14.61,47.82q-61.24-6.35-123-11.87l-7.58-25-7.72,23.68q-14.38-1.26-28.78-2.47l-11.13-59.48-12.43,57.53-12.31-1-5.55-28.18-5.89,27.28q-15.39-1.2-30.77-2.35l-10.1-37L390.92,906.1l-11.07-74.3-15.51,59.71-8.86-33.91-15.81,47.81q-42.45-2.79-84.79-5.08L244.61,857.1,234,899.21h-.27L214.61,771.29l-20.42,94.56-9.87-66.21-20.8,96.3-6-.25-16.4-56.2-15.19,38.19-20.75-68.36-31,57.43-38-178.68S16.31,759.35,0,819v261H1589.84C1404.9,1038.8,1181.9,999,942.87,966.59Z" fill="url(#linear-gradient)"/></svg>