<svg id="Layer_1" data-name="Layer 1" xmlns="http://www.w3.org/2000/svg" xmlns:xlink="http://www.w3.org/1999/xlink" width="1920" height="1080" viewBox="0 0 1920 1080"><defs><linearGradient id="linear-gradient" x1="1325.32" y1="1108.57" x2="1340.53" y2="560.78" gradientUnits="userSpaceOnUse"><stop offset="0" stop-color="#002e46"/><stop offset="0.3" stop-color="#003a50"/><stop offset="1" stop-color="#005264"/></linearGradient></defs><path d="M1883.87,688.07l-38,178.68-31-57.43-20.75,68.36-15.19-38.19-18.29,62.64-2.73.24-22.19-102.73-10.23,68.61-20.06-97-19.33,127.94-10.67-42.13-12.94,54.47q-29.34,3.09-60.74,6.74l-17.25-.41-19.94-60.3-8.86,33.91-15.51-59.71-11.07,74.3-10.38-32.62-15.62,57.15-20.79,2.81-10.35-47.93-10,50.75-3.12.44-17.18-79.54-15.77,84.26-16.08,2.37L1394,895.43l-16.11,53.19q-22,3.4-44.72,7l-16.45-53.81-11.61,44.29-20.69-57.26-23,78.73q-9.59,1.65-19.27,3.35l-8.93-35.53L1225,974l-5,.89-18.62-86.21-23.88,93.94q-16.38,3-33,6.21l-21.19-54.94-17.54,47.79-9.52-31.34-19.46,51.71c-107.9,21.64-223.05,47.35-344.51,78H1920V819C1903.69,759.35,1883.87,688.07,1883.87,688.07Z" fill="url(#linear-gradient)"/></svg>