<svg id="Layer_1" data-name="Layer 1" xmlns="http://www.w3.org/2000/svg" xmlns:xlink="http://www.w3.org/1999/xlink" width="1920" height="1080" viewBox="0 0 1920 1080"><defs><linearGradient id="linear-gradient" x1="956.41" y1="710.75" x2="1006.11" y2="1022.46" gradientUnits="userSpaceOnUse"><stop offset="0.03" stop-color="#006579"/><stop offset="1" stop-color="#005668"/></linearGradient><linearGradient id="linear-gradient-2" x1="455.46" y1="684.53" x2="459.85" y2="890.85" xlink:href="#linear-gradient"/><linearGradient id="linear-gradient-3" x1="1504.02" y1="754.51" x2="1534.78" y2="1035.73" xlink:href="#linear-gradient"/><linearGradient id="linear-gradient-4" x1="530.2" y1="1222.33" x2="1036.16" y2="716.37" gradientUnits="userSpaceOnUse"><stop offset="0.03" stop-color="#006579"/><stop offset="1" stop-color="#59cdcb"/></linearGradient><linearGradient id="linear-gradient-5" x1="15.8" y1="837" x2="534.67" y2="837" xlink:href="#linear-gradient-4"/><linearGradient id="linear-gradient-6" x1="1323.63" y1="822.16" x2="1528.59" y2="822.16" xlink:href="#linear-gradient-4"/></defs><path d="M944.25,558.77,1014.09,525l13.3,7.5,56.79,68.55L1292.31,781.2s89.66,32.4,95.41,33.69S1662.44,1051,1662.44,1051H358.87L583,868s49.43-20.74,55.17-23.33S731.3,743.62,731.3,743.62s180.47-181.43,187.36-184S944.25,558.77,944.25,558.77Z" fill="url(#linear-gradient)"/><polygon points="15.99 1051 410.1 739.93 504.02 623 534.86 623 610.55 708.34 672.23 727.3 910.52 1051 15.99 1051" fill="url(#linear-gradient-2)"/><polygon points="1167.91 1051 1352.18 885.93 1461.52 728.3 1493.39 697.38 1553.08 714.93 1694.77 865.44 1905 1051 1167.91 1051" fill="url(#linear-gradient-3)"/><path d="M970.66,862.52,1033,788,983.63,692.8,812.34,804l135-108.27L1014.09,525l-69.84,33.75s-18.69-1.76-25.59.83-187.36,184-187.36,184-87.36,98.49-93.11,101.08S583,868,583,868L358.87,1051H911l231-97.77Z" fill="url(#linear-gradient-4)"/><polygon points="534.67 623 485.11 725.31 319.17 845.16 490.3 742.85 505.85 777.93 407.32 854.54 441.03 891.93 103.96 1051 15.8 1051 409.92 739.93 503.83 623 534.67 623" fill="url(#linear-gradient-5)"/><polygon points="1493.39 697.16 1461.52 728.09 1352.18 885.71 1445.61 818.41 1323.63 947.15 1518.29 859.37 1492.33 756.96 1528.59 733.1 1493.39 697.16" fill="url(#linear-gradient-6)"/></svg>